<svg width="42" height="42" viewBox="0 0 42 42" fill="none" xmlns="http://www.w3.org/2000/svg">
<path d="M21 42C9.4038 42 0 32.5962 0 21C0 9.4038 9.4038 0 21 0C32.5962 0 42 9.4038 42 21C42 32.5962 32.5962 42 21 42Z" fill="url(#paint0_linear_229_355)"/>
<path d="M20.9999 9.24853C24.8261 9.24853 25.2797 9.26113 26.7917 9.33253C28.1903 9.39553 28.9505 9.63073 29.4545 9.82813C30.1223 10.0885 30.6011 10.3993 31.1009 10.8991C31.6007 11.3989 31.9115 11.8777 32.1719 12.5455C32.3693 13.0495 32.6003 13.8097 32.6675 15.2083C32.7347 16.7203 32.7515 17.1739 32.7515 21.0001C32.7515 24.8263 32.7389 25.2799 32.6675 26.7919C32.6045 28.1905 32.3693 28.9507 32.1719 29.4547C31.9115 30.1225 31.6007 30.6013 31.1009 31.1011C30.6011 31.6009 30.1223 31.9117 29.4545 32.1721C28.9505 32.3695 28.1903 32.6005 26.7917 32.6677C25.2797 32.7349 24.8261 32.7517 20.9999 32.7517C17.1737 32.7517 16.7201 32.7391 15.2081 32.6677C13.8095 32.6047 13.0493 32.3695 12.5453 32.1721C11.8775 31.9117 11.3987 31.6009 10.8989 31.1011C10.3991 30.6013 10.0883 30.1225 9.82793 29.4547C9.63053 28.9507 9.39953 28.1905 9.33233 26.7919C9.26513 25.2799 9.24833 24.8263 9.24833 21.0001C9.24833 17.1739 9.26093 16.7203 9.33233 15.2083C9.39533 13.8097 9.63053 13.0495 9.82793 12.5455C10.0883 11.8777 10.3991 11.3989 10.8989 10.8991C11.3987 10.3993 11.8775 10.0885 12.5453 9.82813C13.0493 9.63073 13.8095 9.39973 15.2081 9.33253C16.7201 9.26113 17.1737 9.24853 20.9999 9.24853ZM20.9999 6.66553C17.1065 6.66553 16.6193 6.68233 15.0905 6.75373C13.5659 6.82513 12.5243 7.06453 11.6087 7.42153C10.6679 7.78273 9.86573 8.27413 9.07193 9.07213C8.27393 9.87013 7.78673 10.6681 7.41713 11.6131C7.06433 12.5245 6.82073 13.5661 6.74933 15.0949C6.67793 16.6237 6.66113 17.1109 6.66113 21.0043C6.66113 24.8977 6.67793 25.3849 6.74933 26.9137C6.82073 28.4383 7.06013 29.4799 7.41713 30.3955C7.78253 31.3321 8.27393 32.1343 9.07193 32.9281C9.86993 33.7261 10.6679 34.2133 11.6129 34.5829C12.5243 34.9357 13.5659 35.1793 15.0947 35.2507C16.6235 35.3221 17.1107 35.3389 21.0041 35.3389C24.8975 35.3389 25.3847 35.3221 26.9135 35.2507C28.4381 35.1793 29.4797 34.9399 30.3953 34.5829C31.3319 34.2175 32.1341 33.7261 32.9279 32.9281C33.7259 32.1301 34.2131 31.3321 34.5827 30.3871C34.9355 29.4757 35.1791 28.4341 35.2505 26.9053C35.3219 25.3765 35.3387 24.8893 35.3387 20.9959C35.3387 17.1025 35.3219 16.6153 35.2505 15.0865C35.1791 13.5619 34.9397 12.5203 34.5827 11.6047C34.2173 10.6681 33.7259 9.86593 32.9279 9.07213C32.1299 8.27413 31.3319 7.78693 30.3869 7.41733C29.4755 7.06453 28.4339 6.82093 26.9051 6.74953C25.3805 6.68233 24.8933 6.66553 20.9999 6.66553Z" fill="white"/>
<path d="M20.9998 13.6372C16.9342 13.6372 13.6372 16.9342 13.6372 20.9998C13.6372 25.0654 16.9342 28.3624 20.9998 28.3624C25.0654 28.3624 28.3624 25.0654 28.3624 20.9998C28.3624 16.9342 25.0654 13.6372 20.9998 13.6372ZM20.9998 25.7794C18.3622 25.7794 16.2202 23.6416 16.2202 20.9998C16.2202 18.358 18.3622 16.2202 20.9998 16.2202C23.6374 16.2202 25.7794 18.358 25.7794 20.9998C25.7794 23.6416 23.6374 25.7794 20.9998 25.7794Z" fill="white"/>
<path d="M28.6522 15.0695C29.6032 15.0695 30.3742 14.2985 30.3742 13.3475C30.3742 12.3965 29.6032 11.6255 28.6522 11.6255C27.7011 11.6255 26.9302 12.3965 26.9302 13.3475C26.9302 14.2985 27.7011 15.0695 28.6522 15.0695Z" fill="white"/>
<defs>
<linearGradient id="paint0_linear_229_355" x1="6.15075" y1="35.8492" x2="35.8492" y2="6.15075" gradientUnits="userSpaceOnUse">
<stop stop-color="#FFD521"/>
<stop offset="0.0551048" stop-color="#FFD020"/>
<stop offset="0.1241" stop-color="#FEC01E"/>
<stop offset="0.2004" stop-color="#FCA71B"/>
<stop offset="0.2821" stop-color="#FA8316"/>
<stop offset="0.3681" stop-color="#F85510"/>
<stop offset="0.4563" stop-color="#F51E09"/>
<stop offset="0.5" stop-color="#F30005"/>
<stop offset="0.5035" stop-color="#F20007"/>
<stop offset="0.5966" stop-color="#E1003B"/>
<stop offset="0.6879" stop-color="#D30067"/>
<stop offset="0.7757" stop-color="#C70088"/>
<stop offset="0.8589" stop-color="#BF00A0"/>
<stop offset="0.9357" stop-color="#BB00AF"/>
<stop offset="1" stop-color="#B900B4"/>
</linearGradient>
</defs>
</svg>
