<svg width="42" height="42" viewBox="0 0 42 42" fill="none" xmlns="http://www.w3.org/2000/svg">
<path d="M34.4617 7.17969H7.53857V34.1028H34.4617V7.17969Z" fill="white"/>
<path d="M34.4617 7.17969H7.53857V34.1028H34.4617V7.17969Z" fill="white"/>
<path fill-rule="evenodd" clip-rule="evenodd" d="M23.4281 14.6882C24.2458 14.8624 24.8725 15.1732 25.408 15.6745C26.0971 16.3252 26.4748 17.1127 26.6408 18.2441C26.753 18.9817 26.7071 19.2718 26.4456 19.5123C26.2008 19.7361 25.7483 19.7443 25.4743 19.533C25.2751 19.3837 25.2128 19.2262 25.1672 18.7993C25.1134 18.2313 25.0136 17.8336 24.8433 17.4648C24.4781 16.6815 23.8347 16.2753 22.7473 16.1428C22.2367 16.0804 22.0831 16.0227 21.9171 15.8278C21.6139 15.4672 21.7304 14.8828 22.1494 14.6672C22.3072 14.5884 22.3735 14.5802 22.7223 14.6009C22.9386 14.6134 23.2582 14.6508 23.4281 14.6882ZM22.5442 11.5589C25.0638 11.9277 27.0145 13.0965 28.2932 14.9947C29.0115 16.064 29.4597 17.3197 29.6133 18.6667C29.6671 19.1599 29.6671 20.0593 29.609 20.2086C29.5549 20.3493 29.3806 20.54 29.2313 20.6187C29.0696 20.7017 28.725 20.6932 28.5341 20.5938C28.2145 20.432 28.119 20.1751 28.119 19.4788C28.119 18.4055 27.8407 17.2738 27.3594 16.3951C26.8114 15.392 26.0144 14.5632 25.0432 13.987C24.2087 13.4895 22.976 13.1207 21.8512 13.0295C21.4443 12.9964 21.2202 12.9134 21.0666 12.7352C20.83 12.4658 20.8051 12.1009 21.0043 11.7984C21.2198 11.4637 21.5519 11.4096 22.5442 11.5589ZM12.7687 9.00178C12.914 9.05166 13.1381 9.16748 13.2667 9.2505C14.0552 9.77287 16.251 12.5787 16.9693 13.9794C17.3801 14.7794 17.5173 15.372 17.3887 15.8114C17.2558 16.2839 17.0359 16.5326 16.0519 17.324C15.6575 17.643 15.288 17.9704 15.2299 18.0577C15.0806 18.2733 14.9602 18.6959 14.9602 18.9945C14.9645 19.6865 15.4127 20.9426 16.002 21.9082C16.4584 22.6583 17.2761 23.6198 18.0856 24.3577C19.0362 25.2282 19.8745 25.8208 20.8212 26.289C22.0375 26.8941 22.7804 27.0473 23.3241 26.7947C23.4609 26.7323 23.6063 26.6497 23.6519 26.6122C23.6933 26.5748 24.0132 26.1854 24.3616 25.7542C25.034 24.9086 25.1875 24.7718 25.6485 24.6143C26.2339 24.4155 26.8314 24.4693 27.4335 24.7761C27.8903 25.0123 28.8865 25.6298 29.5296 26.0774C30.3765 26.67 32.1861 28.1456 32.4312 28.4399C32.8627 28.9705 32.9375 29.65 32.6471 30.4005C32.34 31.1919 31.1446 32.6757 30.3102 33.3099C29.5549 33.8819 29.0194 34.1014 28.3136 34.1345C27.7325 34.1634 27.4916 34.1138 26.7487 33.807C20.9212 31.4075 16.2681 27.8266 12.5737 22.9067C10.6437 20.3372 9.17405 17.6722 8.16966 14.9077C7.58428 13.2956 7.55541 12.5951 8.03677 11.7702C8.24447 11.422 9.12844 10.56 9.77189 10.0793C10.8429 9.28364 11.3367 8.98931 11.7311 8.9063C12.0008 8.84822 12.4701 8.89383 12.7687 9.00178ZM22.2577 8.55422C23.6857 8.73239 24.8394 9.07627 26.1056 9.69413C27.3509 10.3035 28.1479 10.8796 29.2021 11.928C30.1901 12.9186 30.7381 13.6687 31.3192 14.8332C32.1287 16.4578 32.5894 18.3894 32.6681 20.5154C32.6973 21.2405 32.6763 21.4023 32.5103 21.6097C32.195 22.0116 31.5016 21.9453 31.2651 21.4935C31.1902 21.3442 31.1696 21.2159 31.1446 20.6355C31.103 19.7443 31.041 19.1684 30.9163 18.4803C30.4264 15.7822 29.1313 13.627 27.0641 12.0809C25.3414 10.7878 23.5607 10.1578 21.228 10.0209C20.4392 9.97533 20.3024 9.94645 20.1239 9.80962C19.7918 9.54844 19.7751 8.93517 20.0947 8.64905C20.2899 8.47087 20.4268 8.44594 21.1034 8.46661C21.4568 8.47941 21.9755 8.52108 22.2577 8.55422ZM21 0C32.5979 0 42 9.40209 42 21C42 32.5979 32.5979 42 21 42C9.40209 42 0 32.5979 0 21C0 9.40209 9.40209 0 21 0Z" fill="#7F4DA0"/>
</svg>
