<svg width="42" height="42" viewBox="0 0 42 42" fill="none" xmlns="http://www.w3.org/2000/svg">
<path d="M21 42C9.4038 42 0 32.5962 0 21C0 9.4038 9.4038 0 21 0C32.5962 0 42 9.4038 42 21C42 32.5962 32.5962 42 21 42Z" fill="#FF0000"/>
<path d="M34.3646 14.2421C34.0454 13.0325 33.1004 12.0833 31.8992 11.7599C29.7236 11.1719 21.0044 11.1719 21.0044 11.1719C21.0044 11.1719 12.281 11.1719 10.1096 11.7599C8.90835 12.0833 7.96335 13.0325 7.64415 14.2421C7.05615 16.4303 7.05615 20.9999 7.05615 20.9999C7.05615 20.9999 7.05615 25.5695 7.63995 27.7577C7.95915 28.9673 8.90415 29.9165 10.1054 30.2399C12.281 30.8279 21.0002 30.8279 21.0002 30.8279C21.0002 30.8279 29.7236 30.8279 31.895 30.2399C33.0962 29.9165 34.0412 28.9673 34.3604 27.7577C34.9442 25.5695 34.9442 20.9999 34.9442 20.9999C34.9442 20.9999 34.9442 16.4303 34.3646 14.2421ZM18.1484 25.1453V16.8545L25.4354 20.9999L18.1484 25.1453Z" fill="white"/>
</svg>
