<svg width="33" height="33" viewBox="0 0 33 33" fill="none" xmlns="http://www.w3.org/2000/svg">
<g clip-path="url(#clip0_1_554)">
<path d="M24.4156 23.8902C28.0399 21.8451 31.855 21.7521 32.2365 19.5211C32.9041 16.3606 29.3752 15.7099 27.2769 16.6395" stroke="#2B2B2B" stroke-width="1.44" stroke-miterlimit="22.9256" stroke-linecap="round" stroke-linejoin="round"/>
<path d="M10.5879 9.8535C9.34804 8.83096 9.53879 7.06476 10.2064 6.13519C10.9694 5.11265 11.1602 3.62533 9.9203 2.50983" stroke="#2B2B2B" stroke-width="1.5095" stroke-miterlimit="22.9256" stroke-linecap="round" stroke-linejoin="round"/>
<path d="M14.9737 9.38874C13.257 8.18029 13.5431 6.13522 14.4968 5.01972C15.546 3.90423 15.7367 2.13803 14.1153 0.743668" stroke="#2B2B2B" stroke-width="1.5095" stroke-miterlimit="22.9256" stroke-linecap="round" stroke-linejoin="round"/>
<path d="M19.4583 9.8535C18.2184 8.83096 18.4092 7.06476 19.0768 6.13519C19.8398 5.11265 20.0305 3.62533 18.7907 2.50983" stroke="#2B2B2B" stroke-width="1.5095" stroke-miterlimit="22.9256" stroke-linecap="round" stroke-linejoin="round"/>
<path d="M7.345 32.3493H22.1282C24.7034 32.3493 28.6138 29.2817 28.7092 28.2592H0.668701C0.859453 29.2817 4.57911 32.3493 7.345 32.3493Z" stroke="#2B2B2B" stroke-width="1.44" stroke-miterlimit="22.9256" stroke-linecap="round" stroke-linejoin="round"/>
<path d="M9.53577 28.0732C4.76699 25.4704 1.61959 17.7549 2.00109 13.7577C6.38837 13.7577 19.8363 13.7577 27.4664 13.7577C27.8479 18.1267 24.1283 25.7493 19.9317 28.0732" stroke="#2B2B2B" stroke-width="1.44" stroke-miterlimit="22.9256" stroke-linecap="round" stroke-linejoin="round"/>
</g>
<defs>
<clipPath id="clip0_1_554">
<rect width="33" height="33" fill="white"/>
</clipPath>
</defs>
</svg>
