<svg width="33" height="33" viewBox="0 0 33 33" fill="none" xmlns="http://www.w3.org/2000/svg">
<g clip-path="url(#clip0_1_561)">
<path d="M1.77922 18.644H31.3105C31.873 18.644 32.3417 19.1101 32.3417 19.6695V31.322C32.3417 31.8813 31.873 32.3474 31.3105 32.3474H1.77922C1.21672 32.3474 0.747968 31.8813 0.747968 31.322V19.6695C0.654218 19.1101 1.12297 18.644 1.77922 18.644Z" stroke="#2B2B2B" stroke-width="1.44" stroke-miterlimit="22.9256" stroke-linecap="round" stroke-linejoin="round"/>
<path d="M0.844116 19.1102L11.2504 11.0932" stroke="#2B2B2B" stroke-width="1.44" stroke-miterlimit="22.9256" stroke-linecap="round" stroke-linejoin="round"/>
<path d="M18.0011 6.52542L21.3761 4.19491C29.9074 7.64406 32.8136 15.2881 32.1574 19.2034" stroke="#2B2B2B" stroke-width="1.44" stroke-miterlimit="22.9256" stroke-linecap="round" stroke-linejoin="round"/>
<path d="M11.5324 9.13562C12.3761 6.99155 14.7199 5.77969 16.9699 6.61867C19.1261 7.45765 20.3449 9.78816 19.5011 12.0254C18.6574 14.1695 16.3136 15.3814 14.0636 14.5424C11.8136 13.7966 10.6886 11.3729 11.5324 9.13562Z" stroke="#2B2B2B" stroke-width="1.44" stroke-miterlimit="22.9256" stroke-linecap="round" stroke-linejoin="round"/>
<path d="M15.1867 8.66947C15.093 5.87286 13.593 3.07625 11.0617 1.39829C10.593 1.11862 10.1242 0.838964 9.65549 0.652523" stroke="#2B2B2B" stroke-width="1.44" stroke-miterlimit="22.9256" stroke-linecap="round" stroke-linejoin="round"/>
<path d="M32.1547 24.4237C30.8422 24.4237 29.5297 23.0254 28.2172 23.0254C26.9047 23.0254 25.5922 24.4237 24.2797 24.4237C22.9672 24.4237 21.6547 23.0254 20.3422 23.0254C19.0297 23.0254 17.7172 24.4237 16.4047 24.4237C15.0922 24.4237 13.7797 23.0254 12.4672 23.0254C11.1547 23.0254 9.84222 24.4237 8.52972 24.4237C7.21722 24.4237 5.99847 23.0254 4.68597 23.0254C3.37347 23.0254 2.06097 24.4237 0.748474 24.4237" stroke="#2B2B2B" stroke-width="1.44" stroke-miterlimit="22.9256" stroke-linecap="round" stroke-linejoin="round"/>
<path d="M32.157 28.2458C30.8445 28.2458 29.532 26.8475 28.2195 26.8475C26.907 26.8475 25.5945 28.2458 24.282 28.2458C22.9695 28.2458 21.657 26.8475 20.3445 26.8475C19.032 26.8475 17.7195 28.2458 16.407 28.2458C15.0945 28.2458 13.782 26.8475 12.4695 26.8475C11.157 26.8475 9.84451 28.2458 8.53201 28.2458C7.21951 28.2458 5.90701 26.8475 4.59451 26.8475C3.28201 26.8475 1.96951 28.2458 0.657013 28.2458" stroke="#2B2B2B" stroke-width="1.44" stroke-miterlimit="22.9256" stroke-linecap="round" stroke-linejoin="round"/>
<path d="M19.0324 6.43219C26.5324 9.32202 28.3136 15.5678 28.5949 18.3644" stroke="#2B2B2B" stroke-width="1.44" stroke-miterlimit="22.9256" stroke-linecap="round" stroke-linejoin="round"/>
</g>
<defs>
<clipPath id="clip0_1_561">
<rect width="33" height="33" fill="white"/>
</clipPath>
</defs>
</svg>
