<svg width="33" height="33" viewBox="0 0 33 33" fill="none" xmlns="http://www.w3.org/2000/svg">
<path d="M32.4976 10.9504C32.4963 10.9177 32.4896 10.8857 32.4788 10.8543C32.4748 10.8426 32.4708 10.8316 32.4658 10.8206C32.4627 10.8137 32.4614 10.8061 32.4577 10.7996L30.5539 7.31551V3.00611C30.5539 1.95527 29.7207 1.1 28.6967 1.1H15.2738C14.2498 1.1 13.4169 1.95527 13.4169 3.00611V7.31482L11.5131 10.7993C11.4823 10.8554 11.4698 10.9184 11.4729 10.9807C11.4729 10.9842 11.4712 10.9869 11.4712 10.99V19.5878C11.4668 19.5902 11.4621 19.5933 11.4578 19.5961C10.0977 20.3605 8.90293 20.785 7.90742 20.8573C6.15119 20.9819 5.14059 21.7453 4.5885 22.3964C4.53114 22.2982 4.43119 22.2294 4.31144 22.2294H0.828035C0.646911 22.229 0.5 22.3798 0.5 22.5661V31.7138C0.5 31.9001 0.646911 32.0505 0.828035 32.0505H4.31144C4.49257 32.0505 4.63948 31.8997 4.63948 31.7138V31.6391C4.87628 31.6683 5.14159 31.72 5.43609 31.7796C6.08377 31.91 6.86495 32.0677 7.80713 32.0677C7.98389 32.0677 8.16636 32.0622 8.35452 32.0498C11.8123 31.8284 13.275 31.0568 15.2993 29.9888C16.3022 29.4596 17.4385 28.8598 19.0381 28.2142C21.9985 27.0218 25.1819 26.8025 26.8918 26.6848C27.1032 26.6703 27.2927 26.6572 27.4584 26.6441C27.8659 26.6101 28.2422 26.4255 28.52 26.1222C28.7963 25.8157 28.9483 25.4208 28.9483 25.0104C28.9483 24.6454 28.8262 24.3111 28.6263 24.038H30.621C31.6745 24.038 32.5 23.2313 32.5 22.2008V10.9638C32.5003 10.959 32.498 10.9549 32.4976 10.9504ZM14.0733 3.00611C14.0733 2.32644 14.612 1.77347 15.2741 1.77347H28.6967C29.3588 1.77347 29.8975 2.32644 29.8975 3.00611V7.07656H28.4737V3.69886C28.4737 3.32735 28.1795 3.02505 27.8173 3.02505H16.1532C15.7913 3.02505 15.4968 3.32735 15.4968 3.69886V7.07656H14.073L14.0733 3.00611ZM27.8176 7.07656H16.1532V3.69886H27.8176V7.07656ZM13.9315 7.75038H15.8252H28.1456H30.0394L31.6115 10.6274H12.3594L13.9315 7.75038ZM3.98341 31.3767H1.15641V22.9028H3.98341V23.4668V31.2772V31.3767ZM28.0403 25.6622C27.876 25.8415 27.6506 25.9517 27.4064 25.972C27.244 25.9851 27.0569 25.9979 26.8482 26.0123C25.1028 26.1328 21.8536 26.3563 18.7986 27.5872C17.1682 28.2455 16.0161 28.8532 14.9994 29.3893C13.0463 30.4202 11.6349 31.1646 8.3136 31.3774C7.20573 31.449 6.29475 31.2658 5.56287 31.1181C5.22545 31.0503 4.92089 30.989 4.63948 30.9594V23.5326C4.76425 23.2413 5.53671 21.7005 7.95303 21.529C9.0438 21.4499 10.3291 20.9981 11.7737 20.1859C11.8227 20.158 11.8727 20.1253 11.922 20.0967C11.9314 20.0929 11.9388 20.086 11.9475 20.0812C12.458 19.7841 12.9742 19.4563 13.485 19.0941C13.9901 18.7374 14.671 18.7938 15.1135 19.2249C15.1212 19.2349 15.1296 19.2442 15.1383 19.2535C15.3838 19.5052 15.5136 19.8371 15.5035 20.1886C15.4938 20.5388 15.3462 20.8618 15.0883 21.0976L12.5187 23.4517C12.4167 23.5446 12.3812 23.6924 12.4295 23.8235C12.4778 23.9544 12.5999 24.0408 12.7364 24.0408H27.3259C27.8585 24.0408 28.2919 24.4753 28.2919 25.0093C28.2925 25.2504 28.2023 25.4828 28.0403 25.6622ZM31.8439 22.2005C31.8439 22.8526 31.3069 23.3639 30.6213 23.3639H13.6014L15.5257 21.6007C15.9198 21.2402 16.1452 20.7457 16.1603 20.2079C16.175 19.6794 15.9845 19.1802 15.6233 18.7983C15.6146 18.7866 15.6048 18.7752 15.5944 18.7649C14.9286 18.0901 13.8858 17.9947 13.1134 18.5394C12.7853 18.7718 12.456 18.9866 12.1273 19.1922V11.3267L31.8442 11.3009L31.8439 22.2005Z" fill="#2B2B2B" stroke="#2B2B2B" stroke-width="0.5"/>
</svg>
