<svg width="33" height="33" viewBox="0 0 33 33" fill="none" xmlns="http://www.w3.org/2000/svg">
<path d="M32.777 4.40249C32.6398 4.06576 32.4279 3.75397 32.1786 3.49206C32.1661 3.47959 32.1661 3.46712 32.1536 3.46712C31.8918 3.20522 31.6176 3.00567 31.3308 2.86848C31.0316 2.71882 30.7075 2.64399 30.3958 2.63152C30.3833 2.56916 30.3709 2.49433 30.3459 2.4195C30.2711 2.17007 30.2088 1.93311 30.1091 1.69615C29.9595 1.35941 29.7849 1.08503 29.548 0.860544C29.5356 0.848073 29.5356 0.848073 29.5231 0.835601C28.9621 0.286848 28.2515 0 27.491 0C26.718 0 25.995 0.29932 25.4464 0.848073C24.8979 1.39683 24.5987 2.12018 24.5987 2.89342C24.5987 3.59184 24.6735 4.04082 24.7358 4.34014C24.7981 4.67687 24.7981 4.67687 24.7233 4.78912C24.5363 5.06349 24.0252 5.57483 23.1774 6.41043C22.8408 6.74717 21.6689 7.93197 21.0456 8.5805C17.5922 6.2483 14.9617 7.68254 13.1914 9.09184C12.3935 9.72789 11.1094 10.1395 9.86274 10.551C8.74071 10.9127 7.58129 11.2868 6.64627 11.8481C5.07543 12.7959 3.74147 14.1927 2.55711 15.4274C2.24544 15.7517 1.94623 16.0635 1.65949 16.3503C1.65949 16.3503 1.65949 16.3503 1.64702 16.3628C1.63456 16.3753 1.60962 16.4002 1.59716 16.4127C0.188391 17.8095 -0.310287 19.9172 0.188391 22.3492C0.662134 24.6814 2.00856 27.051 3.97834 29.0215C5.94812 30.9921 8.31684 32.339 10.6482 32.8129C11.259 32.9376 11.845 33 12.406 33C14.089 33 15.5352 32.4512 16.5949 31.4036C16.6074 31.3912 16.6198 31.3787 16.6323 31.3662L16.6448 31.3537C16.9315 31.0669 17.2432 30.7676 17.5673 30.4558C18.8015 29.271 20.1978 27.9365 21.1453 26.3651C21.7437 25.3798 22.1676 24.1576 22.5666 22.9728C22.9904 21.7506 23.3769 20.5907 23.9255 19.7676C25.2469 17.7721 26.3939 15.178 24.4491 12.0726L26.5934 9.81519C27.304 9.05442 28.1019 8.20635 28.3013 8.14399C28.3387 8.14399 28.451 8.16893 28.5382 8.19388C28.8499 8.28118 29.3112 8.4059 30.0966 8.4059C30.8695 8.4059 31.5926 8.10658 32.1412 7.55782C32.1536 7.54535 32.1661 7.53288 32.1661 7.53288C32.4279 7.27098 32.6274 6.95918 32.7645 6.62245C32.9141 6.27324 32.9889 5.89909 32.9889 5.51247C33.0014 5.12585 32.9266 4.7517 32.777 4.40249ZM15.6723 30.4807C14.5877 31.5658 12.8922 31.9399 10.91 31.5408C8.82798 31.1168 6.69613 29.8946 4.90089 28.1111C1.27301 24.4819 0.213325 19.6553 2.51971 17.3356C3.34253 16.5125 4.50195 16.1134 5.79851 16.1134C8.12983 16.1134 10.9598 17.3855 13.2911 19.7177C16.919 23.3345 17.9912 28.161 15.6723 30.4807ZM22.8533 19.0442C22.205 20.0045 21.7687 21.3016 21.3448 22.5488C20.9583 23.6712 20.5594 24.8186 20.0358 25.6791C19.5246 26.5147 18.8514 27.3129 18.1408 28.0488C18.2281 27.2381 18.1907 26.3776 18.0037 25.4546C17.5299 23.1224 16.1835 20.7528 14.2137 18.7823C12.2439 16.8118 9.87521 15.4649 7.54389 14.9909C6.93301 14.8662 6.34706 14.8039 5.78605 14.8039C5.49931 14.8039 5.22504 14.8163 4.96323 14.8537C5.69878 14.1429 6.4842 13.4694 7.33195 12.958C8.12983 12.4717 9.21446 12.1224 10.2617 11.7857C11.6206 11.3492 13.0293 10.8878 14.0018 10.102C16.0214 8.48073 18.3901 7.48299 21.9432 11.0374C25.2345 14.3299 24.3244 16.8243 22.8533 19.0442ZM31.5677 6.11111C31.4929 6.29819 31.3682 6.47279 31.2311 6.62245C31.2186 6.63492 31.2186 6.63492 31.2061 6.64739C30.9069 6.93424 30.5205 7.09637 30.1091 7.09637C29.4982 7.09637 29.1616 7.00907 28.8873 6.93424C27.7902 6.63492 27.5035 6.94671 25.6584 8.91723L23.6886 11C23.4517 10.7132 23.1774 10.4138 22.8907 10.127C22.6164 9.85261 22.3546 9.61565 22.0928 9.39116C22.7286 8.74263 23.7883 7.67007 24.1 7.35828C26.0199 5.43764 26.2194 5.2381 26.0199 4.11565C25.97 3.8288 25.9077 3.47959 25.9077 2.9059C25.9077 2.48186 26.0698 2.08277 26.369 1.78345C26.6682 1.48413 27.0671 1.322 27.491 1.322C27.9149 1.322 28.3138 1.48413 28.613 1.78345C28.6255 1.79592 28.6255 1.79592 28.638 1.80839C28.7377 1.92063 28.825 2.04535 28.8998 2.21995C28.9746 2.38209 29.0244 2.55669 29.0743 2.76871C29.1117 2.89342 29.1242 2.9932 29.1366 3.10544C29.2364 3.96599 30.0093 3.95351 30.3335 3.94104C30.4581 3.94104 30.6077 3.97846 30.7573 4.04082C30.9069 4.11565 31.069 4.22789 31.2061 4.36508C31.2186 4.37755 31.2186 4.37755 31.2311 4.39002C31.3807 4.53968 31.4929 4.71429 31.5802 4.90136C31.655 5.10091 31.7048 5.30045 31.7048 5.51247C31.6924 5.71202 31.6425 5.92404 31.5677 6.11111Z" fill="#333333"/>
<path d="M10.7213 22.2744C10.1727 21.7256 9.48706 21.339 8.81384 21.2018C8.05336 21.0522 7.35521 21.2268 6.89393 21.6882C6.43266 22.1497 6.25812 22.8481 6.40772 23.6088C6.54486 24.2823 6.91887 24.9558 7.47988 25.517C8.02843 26.0658 8.71411 26.4524 9.38732 26.5896C9.56186 26.627 9.7364 26.6395 9.89847 26.6395C10.447 26.6395 10.9457 26.4524 11.3072 26.0907C12.2049 25.1927 11.9555 23.5091 10.7213 22.2744ZM10.3722 25.1803C10.2226 25.3299 9.9608 25.3798 9.63666 25.3175C9.22525 25.2302 8.77644 24.9807 8.40243 24.6066C8.04089 24.2324 7.77909 23.7834 7.69182 23.3719C7.62948 23.0476 7.67935 22.7857 7.82895 22.6361C7.92869 22.5363 8.10323 22.4739 8.3027 22.4739C8.38997 22.4739 8.47724 22.4864 8.5645 22.4989C8.97591 22.5862 9.42472 22.8356 9.79873 23.2097C10.5218 23.9331 10.6964 24.8435 10.3722 25.1803Z" fill="#333333"/>
<path d="M21.5443 12.8458C21.2326 13.0204 21.1204 13.4195 21.2949 13.7313C22.0928 15.1655 21.9432 16.5374 20.7713 18.2959C20.2602 19.0692 19.8986 20.1043 19.562 21.0896C19.2628 21.9626 18.9511 22.873 18.5397 23.534C18.3527 23.8458 18.4525 24.2449 18.7641 24.432C18.8763 24.4943 18.9885 24.5317 19.1008 24.5317C19.3252 24.5317 19.5371 24.4195 19.6618 24.22C20.1355 23.4342 20.4721 22.4614 20.7963 21.5136C21.1204 20.5533 21.4321 19.6553 21.8559 19.0193C22.766 17.6599 23.8133 15.5522 22.4419 13.0828C22.2674 12.7834 21.8684 12.6587 21.5443 12.8458Z" fill="#333333"/>
</svg>
