<svg width="33" height="33" viewBox="0 0 33 33" fill="none" xmlns="http://www.w3.org/2000/svg">
<path d="M28.0547 6.6272C29.5085 13.3577 29.1664 19.4152 28.0547 25.3044" stroke="#2B2B2B" stroke-miterlimit="22.9256" stroke-linecap="round" stroke-linejoin="round"/>
<path d="M5.82107 25.3044C3.7687 19.4993 4.19627 12.8529 5.82107 6.6272" stroke="#2B2B2B" stroke-miterlimit="22.9256" stroke-linecap="round" stroke-linejoin="round"/>
<path d="M7.10317 9.2353C7.01765 6.37484 3.68255 5.11286 4.02461 2.42066C14.1154 3.5985 22.3249 3.09371 29.4227 2C28.9096 5.70178 26.6862 6.20657 26.1731 8.81465" stroke="#2B2B2B" stroke-miterlimit="22.9256" stroke-linecap="round" stroke-linejoin="round"/>
<path d="M5.57422 5.07025C14.5336 6.28918 21.7639 5.72659 28.1298 4.69519" stroke="#2B2B2B" stroke-miterlimit="22.9256" stroke-linecap="round" stroke-linejoin="round"/>
<path d="M27.0279 24.1266C29.5079 26.7347 29.9355 27.6601 29.5934 30.3523C19.5026 29.1745 11.2931 29.6793 4.19531 30.773C4.79392 26.9871 5.47804 26.9029 6.58975 24.8838" stroke="#2B2B2B" stroke-miterlimit="22.9256" stroke-linecap="round" stroke-linejoin="round"/>
<path d="M29.2038 27.7868C19.8179 26.5679 12.2432 27.1305 5.57422 28.1619" stroke="#2B2B2B" stroke-miterlimit="22.9256" stroke-linecap="round" stroke-linejoin="round"/>
</svg>
