<svg width="33" height="33" viewBox="0 0 33 33" fill="none" xmlns="http://www.w3.org/2000/svg">
<g clip-path="url(#clip0_1_570)">
<path d="M30.1811 32.5H2.81665C1.82381 32.5 0.868796 32.0581 0.36765 31.3769C-0.00111797 30.8705 -0.0956738 30.2814 0.112349 29.7014C0.140716 29.6369 0.169083 29.5725 0.216361 29.5081C1.04845 28.477 4.69831 24.8959 5.50203 24.3251C6.00318 23.9661 6.59888 23.7819 7.26077 23.7819H13.0287C12.0075 22.3918 10.8917 21.0385 9.88943 19.8142C8.52782 18.1571 7.35533 16.7301 6.83527 15.7175C6.08828 14.2722 5.7006 12.6427 5.7006 11.0132C5.7006 8.20541 6.82582 5.56329 8.86822 3.5748C10.9012 1.59551 13.6149 0.5 16.4989 0.5C22.4559 0.5 27.3066 5.22267 27.3066 11.0224C27.3066 12.6519 26.9095 14.2814 26.1719 15.7267C25.633 16.767 24.4321 18.2675 23.0327 20.0075C22.0871 21.1766 21.047 22.4747 20.0826 23.7911H25.7464C26.4083 23.7911 27.004 23.9753 27.5052 24.3343C28.2995 24.8959 31.9588 28.477 32.7909 29.5173C32.8381 29.5725 32.876 29.6369 32.8949 29.7014C33.1029 30.2814 33.0083 30.8705 32.6396 31.3769C32.1384 32.0581 31.174 32.5 30.1811 32.5ZM1.33212 30.2077C1.30375 30.355 1.34158 30.4931 1.43613 30.6312C1.68198 30.9718 2.25877 31.2112 2.80719 31.2112H30.1811C30.7295 31.2112 31.3063 30.9626 31.5522 30.6312C31.6562 30.4931 31.6846 30.3642 31.6562 30.2169C30.7106 29.103 27.335 25.8257 26.7109 25.3838C26.4367 25.1904 26.1058 25.0892 25.7275 25.0892H19.1464C18.2954 26.3412 17.5674 27.584 17.0946 28.7348C16.9906 28.9833 16.7542 29.1398 16.48 29.1398H16.4705C16.1963 29.1398 15.9505 28.9649 15.8559 28.7163C15.4209 27.5472 14.7307 26.3228 13.8986 25.0892H7.25132C6.87309 25.0892 6.54215 25.1904 6.26794 25.3838C5.65332 25.8165 2.27768 29.0938 1.33212 30.2077ZM16.4989 1.78884C13.9648 1.78884 11.582 2.74626 9.79487 4.4954C7.99831 6.24453 7.01493 8.55524 7.01493 11.0224C7.01493 12.4494 7.36478 13.8763 8.01722 15.1467C8.47109 16.0397 9.60576 17.4206 10.9201 19.0132C12.8396 21.3516 15.1656 24.1778 16.5273 26.8843C17.8889 24.2883 20.1393 21.5081 21.9926 19.1974C23.3447 17.5127 24.5172 16.0673 24.99 15.1375C25.6424 13.8671 25.9923 12.4402 25.9923 11.0132C25.9828 5.93153 21.7278 1.78884 16.4989 1.78884ZM16.6123 17.08C13.1232 17.08 10.2771 14.309 10.2771 10.912C10.2771 7.51496 13.1232 4.74396 16.6123 4.74396C20.1015 4.74396 22.9476 7.51496 22.9476 10.912C22.9476 14.309 20.1015 17.08 16.6123 17.08ZM16.6123 6.0328C13.8513 6.0328 11.6009 8.22382 11.6009 10.912C11.6009 13.6001 13.8513 15.7911 16.6123 15.7911C19.3734 15.7911 21.6238 13.6001 21.6238 10.912C21.6238 8.22382 19.3734 6.0328 16.6123 6.0328Z" fill="#2B2B2B"/>
</g>
<defs>
<clipPath id="clip0_1_570">
<rect width="33" height="33" fill="white"/>
</clipPath>
</defs>
</svg>
