<svg width="41" height="21" viewBox="0 0 41 21" fill="none" xmlns="http://www.w3.org/2000/svg">
<path d="M27.6668 19.375C28.1271 19.375 28.5002 18.9832 28.5002 18.5C28.5002 18.0168 28.1271 17.625 27.6668 17.625C27.2066 17.625 26.8335 18.0168 26.8335 18.5C26.8335 18.9832 27.2066 19.375 27.6668 19.375Z" stroke="white" stroke-width="2" stroke-linecap="round" stroke-linejoin="round"/>
<path d="M36.8333 19.375C37.2936 19.375 37.6667 18.9832 37.6667 18.5C37.6667 18.0168 37.2936 17.625 36.8333 17.625C36.3731 17.625 36 18.0168 36 18.5C36 18.9832 36.3731 19.375 36.8333 19.375Z" stroke="white" stroke-width="2" stroke-linecap="round" stroke-linejoin="round"/>
<path d="M21 1H24.3333L26.5667 12.7163C26.6429 13.1191 26.8516 13.481 27.1563 13.7385C27.461 13.9961 27.8422 14.1329 28.2333 14.125H36.3333C36.7244 14.1329 37.1057 13.9961 37.4104 13.7385C37.7151 13.481 37.9238 13.1191 38 12.7163L39.3333 5.375H25.1667" stroke="white" stroke-width="2" stroke-linecap="round" stroke-linejoin="round"/>
<path d="M6 5V15" stroke="white" stroke-width="2" stroke-linecap="round"/>
<path d="M11 10L1 10" stroke="white" stroke-width="2" stroke-linecap="round"/>
</svg>
