<svg width="56" height="38" viewBox="0 0 56 38" fill="none" xmlns="http://www.w3.org/2000/svg">
<g clip-path="url(#clip0_1086_10258)">
<path d="M40.0669 12.0158C40.0652 11.9759 40.0568 11.9368 40.0434 11.8986C40.0383 11.8843 40.0333 11.8709 40.027 11.8574C40.0232 11.849 40.0215 11.8398 40.0169 11.8318L37.633 7.58184V2.32512C37.633 1.04328 36.5897 0 35.3075 0H18.4995C17.2172 0 16.1744 1.04328 16.1744 2.32512V7.581L13.7904 11.8314C13.7518 11.8999 13.7363 11.9767 13.74 12.0527C13.74 12.0569 13.738 12.0603 13.738 12.0641V22.5519C13.7325 22.5548 13.7266 22.5586 13.7211 22.562C12.018 23.4944 10.522 24.0122 9.27545 24.1004C7.07633 24.2525 5.81087 25.1836 5.11955 25.9778C5.04773 25.8581 4.92257 25.7741 4.77263 25.7741H0.41076C0.18396 25.7737 0 25.9577 0 26.1849V37.3435C0 37.5707 0.18396 37.7542 0.41076 37.7542H4.77263C4.99943 37.7542 5.18339 37.5703 5.18339 37.3435V37.2523C5.47991 37.288 5.81213 37.351 6.18089 37.4237C6.99191 37.5829 7.97009 37.7752 9.14987 37.7752C9.37121 37.7752 9.59969 37.7685 9.83531 37.7534C14.1651 37.4833 15.9967 36.5421 18.5314 35.2393C19.7872 34.5937 21.2102 33.8621 23.2131 33.0746C26.9201 31.6201 30.9063 31.3526 33.0474 31.2089C33.312 31.1913 33.5493 31.1753 33.7568 31.1594C34.2671 31.1178 34.7384 30.8927 35.0861 30.5227C35.4322 30.1489 35.6225 29.6671 35.6225 29.1665C35.6225 28.7213 35.4696 28.3135 35.2193 27.9804H37.717C39.0362 27.9804 40.0698 26.9963 40.0698 25.7393V12.0322C40.0703 12.0263 40.0673 12.0212 40.0669 12.0158ZM16.9963 2.32512C16.9963 1.49604 17.6708 0.82152 18.4999 0.82152H35.3075C36.1366 0.82152 36.8111 1.49604 36.8111 2.32512V7.29036H35.0282V3.17016C35.0282 2.71698 34.6598 2.34822 34.2062 2.34822H19.6007C19.1476 2.34822 18.7788 2.71698 18.7788 3.17016V7.29036H16.9959L16.9963 2.32512ZM34.2066 7.29036H19.6007V3.17016H34.2066V7.29036ZM16.8186 8.1123H19.19H34.6174H36.9887L38.9573 11.6218H14.8501L16.8186 8.1123ZM4.36187 36.9323H0.82194V26.5957H4.36187V27.2836V36.8109V36.9323ZM34.4855 29.9615C34.2797 30.1804 33.9975 30.3148 33.6917 30.3395C33.4884 30.3555 33.2541 30.371 32.9928 30.3887C30.8072 30.5357 26.7386 30.8083 22.9133 32.3098C20.8716 33.1128 19.4289 33.8541 18.1559 34.508C15.7103 35.7655 13.9429 36.6736 9.78407 36.9331C8.39681 37.0205 7.25609 36.797 6.33965 36.6169C5.91713 36.5341 5.53577 36.4594 5.18339 36.4232V27.3638C5.33963 27.0085 6.30689 25.129 9.33257 24.9199C10.6984 24.8233 12.3078 24.2722 14.1168 23.2814C14.1781 23.2474 14.2407 23.2075 14.3024 23.1727C14.3142 23.168 14.3234 23.1596 14.3343 23.1538C14.9736 22.7913 15.62 22.3915 16.2596 21.9496C16.8921 21.5145 17.7447 21.5834 18.2987 22.1092C18.3084 22.1214 18.3189 22.1327 18.3298 22.1441C18.6372 22.4511 18.7998 22.856 18.7872 23.2848C18.775 23.7119 18.5902 24.1059 18.2672 24.3936L15.0496 27.2651C14.9219 27.3785 14.8774 27.5587 14.9379 27.7187C14.9984 27.8783 15.1512 27.9838 15.3222 27.9838H33.5909C34.2579 27.9838 34.8005 28.5138 34.8005 29.1652C34.8014 29.4592 34.6884 29.7427 34.4855 29.9615ZM39.2483 25.7389C39.2483 26.5343 38.5759 27.158 37.7174 27.158H16.4054L18.8149 25.0072C19.3084 24.5675 19.5907 23.9644 19.6096 23.3083C19.628 22.6636 19.3895 22.0546 18.9371 21.5888C18.9262 21.5746 18.914 21.5607 18.901 21.5481C18.0673 20.7249 16.7615 20.6086 15.7943 21.273C15.3835 21.5565 14.9711 21.8186 14.5595 22.0693V12.4748L39.2487 12.4433L39.2483 25.7389Z" fill="#2B2B2B" stroke="#2B2B2B" stroke-width="0.5"/>
<path d="M28.4681 16.1717H26.9828H25.5487C24.4219 16.1717 23.5 17.0879 23.5 18.2077V20.3285V20.9224V21.2108V21.2786V24.4853C23.5 24.7568 23.7219 24.9774 23.9951 24.9774H25.9926V23.2637V22.7038H27.9389C27.9559 22.7038 27.973 22.7038 27.9901 22.7038V23.2637V25.0792H30.0047C30.2778 25.0792 30.4998 24.8586 30.4998 24.5871V21.2786C30.4998 21.2786 30.4998 21.2786 30.4998 21.2617C30.4998 21.2447 30.4998 21.2277 30.4998 21.2108V18.2077C30.5168 17.0879 29.5949 16.1717 28.4681 16.1717ZM27.9389 20.6H25.9926V19.4972V18.6997C25.9926 18.3943 26.2487 18.1398 26.556 18.1398H27.4096C27.7169 18.1398 27.973 18.3943 27.973 18.6997V19.4972V20.6C27.9901 20.6 27.9559 20.6 27.9389 20.6Z" fill="#ED5432"/>
<path fill-rule="evenodd" clip-rule="evenodd" d="M28.9974 15.7306H25.0024C24.7122 15.7306 24.4902 15.4931 24.4902 15.2216V14.509C24.4902 14.2206 24.7293 14 25.0024 14H28.9974C29.2876 14 29.5096 14.2375 29.5096 14.509V15.2216C29.5096 15.51 29.2876 15.7306 28.9974 15.7306Z" fill="#ED5432"/>
</g>
<defs>
<clipPath id="clip0_1086_10258">
<rect width="56" height="38" fill="white"/>
</clipPath>
</defs>
</svg>
