<svg width="56" height="32" viewBox="0 0 56 32" fill="none" xmlns="http://www.w3.org/2000/svg">
<path d="M40.0825 0.783936C48.6377 0.783936 55.5751 7.72304 55.5751 16.2839C55.5751 24.8448 48.6377 31.7839 40.0825 31.7839C35.1102 31.7839 30.6841 29.441 27.8516 25.7977C29.8966 23.1708 31.1132 19.8703 31.1132 16.2839C31.1132 12.6977 29.8966 9.39704 27.8516 6.7702C30.6841 3.12688 35.1102 0.783936 40.0825 0.783936Z" fill="#F79F1A"/>
<path d="M27.8436 6.7702C29.8886 9.39704 31.1052 12.6977 31.1052 16.2839C31.1052 19.8701 29.8886 23.1708 27.8436 25.7977C25.7986 23.1708 24.582 19.8703 24.582 16.2839C24.582 12.6977 25.7986 9.39704 27.8436 6.7702Z" fill="#FF5F01"/>
<path d="M15.6156 0.783936C20.5879 0.783936 25.0139 3.12688 27.8466 6.7702C25.8015 9.39704 24.585 12.6977 24.585 16.2839C24.585 19.8701 25.8015 23.1708 27.8466 25.7977C25.0139 29.441 20.5879 31.7839 15.6156 31.7839C7.05882 31.7839 0.123047 24.8448 0.123047 16.2839C0.123047 7.72304 7.05882 0.783936 15.6156 0.783936Z" fill="#EA001B"/>
<path d="M50.0771 15.1266C49.1207 13.8548 46.5898 14.5315 46.5898 16.7486C46.5898 19.0124 49.214 19.619 50.0771 18.3705V18.9073H50.9985V12.8749H50.0771V15.1266ZM48.8408 18.1137C48.0478 18.1137 47.5346 17.507 47.5346 16.7486C47.5346 15.9899 48.0479 15.3834 48.8408 15.3834C49.6107 15.3834 50.1471 15.9898 50.1471 16.7486C50.1471 17.5422 49.6107 18.1137 48.8408 18.1137Z" fill="#2B2B2B"/>
<path d="M15.1376 15.1266C14.8227 14.7414 14.3796 14.4964 13.7729 14.4964C12.5716 14.4964 11.6504 15.4533 11.6504 16.7484C11.6504 18.0554 12.5718 19.0006 13.7729 19.0006C14.3796 19.0006 14.8227 18.7788 15.1376 18.3704V18.9072H16.0591V14.613H15.1376V15.1266ZM13.9013 18.1137C13.0731 18.1137 12.5951 17.507 12.5951 16.7486C12.5951 15.99 13.0731 15.3834 13.9013 15.3834C14.6593 15.3834 15.1609 15.9898 15.1725 16.7486C15.1725 17.5422 14.6594 18.1137 13.9013 18.1137Z" fill="#2B2B2B"/>
<path d="M27.644 14.4847C26.4081 14.4847 25.5215 15.4068 25.5215 16.7369C25.5215 19.129 28.1574 19.5258 29.4636 18.3939L29.0205 17.6937C28.1108 18.4407 26.7344 18.3705 26.4664 17.122H29.6736C29.6736 15.2316 28.8105 14.4847 27.644 14.4847ZM26.5013 16.3636C26.5946 15.7568 26.9793 15.3485 27.6091 15.3485C28.2154 15.3485 28.624 15.6985 28.7288 16.3636H26.5013Z" fill="#2B2B2B"/>
<path d="M41.4113 15.1266C40.4432 13.843 37.9238 14.5664 37.9238 16.7486C37.9238 18.9889 40.5366 19.6306 41.4113 18.3705V18.9073H42.3677V14.6131H41.4113V15.1266ZM40.1749 18.1137C39.3819 18.1137 38.9038 17.507 38.9038 16.7486C38.9038 15.9899 39.3819 15.3834 40.1749 15.3834C40.9679 15.3834 41.4811 15.9898 41.4811 16.7486C41.4811 17.5422 40.9678 18.1137 40.1749 18.1137Z" fill="#2B2B2B"/>
<path d="M9.1085 14.4965C8.57195 14.4965 8.00064 14.6599 7.61553 15.2547C7.33557 14.7766 6.85758 14.4965 6.19266 14.4965C5.74942 14.4965 5.30633 14.6599 4.95657 15.1267V14.6131H4V18.8957H4.95642C4.95642 16.6903 4.66478 15.3719 6.00602 15.3719C7.19566 15.3719 6.96244 16.562 6.96244 18.8957H7.88381C7.88381 16.7605 7.59216 15.3719 8.9334 15.3719C10.123 15.3719 9.88982 16.5386 9.88982 18.8957H10.8461V16.2119H10.8227C10.8227 15.1963 10.1582 14.5315 9.1085 14.4965Z" fill="#2B2B2B"/>
<path d="M18.1118 15.8266C18.1118 15.1614 19.4997 15.2665 20.2693 15.6983L20.6543 14.9398C19.5579 14.2281 17.1321 14.2398 17.1321 15.8969C17.1321 17.5653 19.8029 16.8653 19.8029 17.6471C19.8029 18.3822 18.2284 18.3238 17.3888 17.7405L16.9805 18.4757C18.2867 19.3622 20.7823 19.1759 20.7823 17.6004C20.7825 15.8503 18.1118 16.6434 18.1118 15.8266Z" fill="#2B2B2B"/>
<path d="M23.2316 17.4135V15.4767H24.7593V14.6132H23.2316V13.3066H22.2751V14.6132H21.3887V15.4648H22.2751V17.4135C22.2751 19.4675 24.2927 19.0938 24.9107 18.6856L24.6541 17.892C24.2112 18.1369 23.2316 18.4053 23.2316 17.4135Z" fill="#2B2B2B"/>
<path d="M31.5798 15.1266V14.613H30.623V18.8955H31.5798V16.4802C31.5798 15.1266 32.6878 15.3016 33.0726 15.5L33.3523 14.6131C32.816 14.38 31.9996 14.403 31.5798 15.1266Z" fill="#2B2B2B"/>
<path d="M37.0031 15.7684L37.4461 15.01C36.0935 13.9482 33.6328 14.5316 33.6328 16.7604C33.6328 19.0707 36.245 19.5374 37.4461 18.5105L37.0031 17.7522C35.93 18.5105 34.5888 18.0557 34.5888 16.7487C34.5888 15.4184 35.9417 14.9863 37.0031 15.7684Z" fill="#2B2B2B"/>
<path d="M44.5268 15.1266V14.613H43.6055V18.8955H44.5268V16.4802C44.5268 15.1963 45.5766 15.2782 46.0198 15.5L46.2998 14.6131C46.0197 14.4732 45.0167 14.2748 44.5268 15.1266Z" fill="#2B2B2B"/>
</svg>
