<svg width="56" height="38" viewBox="0 0 56 38" fill="none" xmlns="http://www.w3.org/2000/svg">
<path d="M30.3566 18.7787H28.4562H26.6213C25.1796 18.7787 24 19.9509 24 21.3837V24.0972V24.857V25.226V25.3129V29.4157C24 29.7631 24.284 30.0453 24.6335 30.0453H27.1892V27.8527V27.1364H29.6794C29.7013 27.1364 29.7231 27.1364 29.745 27.1364V27.8527V30.1755H32.3226C32.6721 30.1755 32.956 29.8933 32.956 29.546V25.3129C32.956 25.3129 32.956 25.3129 32.956 25.2912C32.956 25.2694 32.956 25.2477 32.956 25.226V21.3837C32.9779 19.9509 31.7983 18.7787 30.3566 18.7787ZM29.6794 24.4445H27.1892V23.0335V22.0132C27.1892 21.6224 27.5169 21.2968 27.9101 21.2968H29.0023C29.3955 21.2968 29.7231 21.6224 29.7231 22.0132V23.0335V24.4445C29.745 24.4445 29.7013 24.4445 29.6794 24.4445Z" fill="#ED5432"/>
<path fill-rule="evenodd" clip-rule="evenodd" d="M31.0344 18.2143H25.9229C25.5516 18.2143 25.2676 17.9103 25.2676 17.563V16.6513C25.2676 16.2822 25.5734 16 25.9229 16H31.0344C31.4057 16 31.6897 16.3039 31.6897 16.6513V17.563C31.6897 17.932 31.4057 18.2143 31.0344 18.2143Z" fill="#ED5432"/>
<path d="M39.9946 14.9937L39.0984 9.25634C39.2373 9.13007 39.3482 8.97689 39.4242 8.80641C39.5002 8.63592 39.5396 8.45182 39.54 8.26562V3.35938C39.5396 2.99897 39.3941 2.65344 39.1354 2.39859C38.8766 2.14374 38.5259 2.0004 38.16 2H18.84C18.4741 2.0004 18.1233 2.14374 17.8646 2.39859C17.6059 2.65344 17.4604 2.99897 17.46 3.35938V8.26562C17.4604 8.45182 17.4998 8.63592 17.5758 8.80641C17.6518 8.97689 17.7627 9.13007 17.9016 9.25634L17.0054 14.9937C17.0018 15.0164 17 15.0395 17 15.0625V33.6406C17.0004 34.001 17.1459 34.3466 17.4046 34.6014C17.6633 34.8563 18.0141 34.9996 18.38 35H38.62C38.9859 34.9996 39.3367 34.8563 39.5954 34.6014C39.8541 34.3466 39.9996 34.001 40 33.6406V15.0625C40 15.0395 39.9982 15.0164 39.9946 14.9937ZM18.38 3.35938C18.3801 3.23923 18.4286 3.12404 18.5149 3.03909C18.6011 2.95413 18.718 2.90636 18.84 2.90625H38.16C38.282 2.90636 38.3989 2.95413 38.4851 3.03909C38.5714 3.12404 38.6199 3.23923 38.62 3.35938V8.26562C38.6199 8.38577 38.5714 8.50096 38.4851 8.58591C38.3989 8.67087 38.282 8.71864 38.16 8.71875H29.88V7.8125C29.88 7.69232 29.8315 7.57707 29.7453 7.49209C29.659 7.40711 29.542 7.35938 29.42 7.35938H27.58C27.458 7.35938 27.341 7.40711 27.2547 7.49209C27.1685 7.57707 27.12 7.69232 27.12 7.8125V8.71875H18.84C18.718 8.71864 18.6011 8.67087 18.5149 8.58591C18.4286 8.50096 18.3801 8.38577 18.38 8.26562V3.35938ZM28.96 8.26562V10.9844H28.04V8.26562H28.96ZM39.08 33.6406C39.0799 33.7608 39.0314 33.876 38.9451 33.9609C38.8589 34.0459 38.742 34.0936 38.62 34.0938H18.38C18.258 34.0936 18.1411 34.0459 18.0549 33.9609C17.9686 33.876 17.9201 33.7608 17.92 33.6406V15.0973L18.7749 9.625H27.12V11.4375C27.12 11.5577 27.1685 11.6729 27.2547 11.7579C27.341 11.8429 27.458 11.8906 27.58 11.8906H29.42C29.542 11.8906 29.659 11.8429 29.7453 11.7579C29.8315 11.6729 29.88 11.5577 29.88 11.4375V9.625H38.2251L39.08 15.0973V33.6406Z" fill="#2B2B2B" stroke="#2B2B2B" stroke-width="0.5"/>
</svg>
