<svg width="56" height="38" viewBox="0 0 56 38" fill="none" xmlns="http://www.w3.org/2000/svg">
<path d="M38.0425 21.3141C38.0416 21.3139 27.4398 18.9065 27.4398 18.9065C24.2798 18.1889 22.2975 15.0366 23.0124 11.8656C23.7277 8.69455 26.8693 6.70587 30.0293 7.42323C33.1895 8.14084 35.1716 11.2931 34.4567 14.4639C34.0984 16.0515 33.1319 17.3416 31.8595 18.1453C31.8593 18.1453 31.8562 18.1479 31.855 18.1485C31.8176 18.1755 31.7934 18.2193 31.7934 18.2687C31.7934 18.3378 31.841 18.396 31.9052 18.4115C31.9055 18.4117 36.6216 19.4818 36.6224 19.4818C36.7346 19.5074 36.8511 19.4639 36.9201 19.3725C36.9205 19.3717 36.9203 19.3723 36.9203 19.3723C38.2196 17.6472 39 15.4947 39 13.1665C39 7.6836 34.731 3.20284 29.3463 2.8846C29.2983 2.88193 29.0065 2.87049 28.9079 2.86908C26.5238 2.83153 24.1065 3.51749 22.0045 4.99465C16.696 8.72432 15.4063 16.0656 19.1228 21.392L28.5553 34.9092C28.5956 34.9643 28.6604 35 28.7332 35C28.8066 35 28.8717 34.9637 28.9117 34.9082C28.9117 34.9082 38.1742 21.6537 38.1751 21.6525C38.1986 21.6174 38.2127 21.5748 38.2127 21.5291C38.2127 21.4242 38.1401 21.3365 38.0425 21.3141" fill="#FABC26"/>
</svg>
