<svg width="69" height="32" viewBox="0 0 69 32" fill="none" xmlns="http://www.w3.org/2000/svg">
<g clip-path="url(#clip0_1086_10284)">
<path fill-rule="evenodd" clip-rule="evenodd" d="M27.939 5.38701L24.4205 27.0106H30.0498L33.5687 5.38701H27.939V5.38701ZM19.6841 5.38701L14.3169 20.2595L13.682 17.0569L13.6825 17.058L13.5426 16.3402C12.893 14.9403 11.3886 12.2796 8.54783 10.009C7.70798 9.33781 6.86138 8.76502 6.04297 8.27574L10.9209 27.0106H16.7862L25.743 5.38701H19.6841V5.38701ZM41.6544 11.3901C41.6544 8.9454 47.137 9.25954 49.546 10.587L50.3493 5.94287C50.3493 5.94287 47.87 5 45.2859 5C42.4921 5 35.858 6.22177 35.858 12.1583C35.858 17.7453 43.6444 17.8148 43.6444 20.748C43.6444 23.6813 36.6608 23.1571 34.3561 21.3067L33.5185 26.161C33.5185 26.161 36.032 27.3827 39.8735 27.3827C43.7146 27.3827 49.5109 25.3928 49.5109 19.9798C49.5109 14.3579 41.6544 13.8343 41.6544 11.3901ZM64.6263 5.38701H60.1002C58.0102 5.38701 57.5013 6.99849 57.5013 6.99849L49.1061 27.0106H54.9736L56.1474 23.7988H63.3041L63.9643 27.0106H69.1333L64.6263 5.38701ZM57.7697 19.3615L60.7278 11.2694L62.3919 19.3615H57.7697Z" fill="#005BAC"/>
<path fill-rule="evenodd" clip-rule="evenodd" d="M11.8642 7.42275C11.8642 7.42275 11.6312 5.47119 9.14361 5.47119H0.105862L0 5.83796C0 5.83796 4.34426 6.72355 8.51203 10.0414C12.4949 13.2125 13.7942 17.1654 13.7942 17.1654L11.8642 7.42275Z" fill="#F6AC1D"/>
</g>
<defs>
<clipPath id="clip0_1086_10284">
<rect width="69" height="32" fill="white"/>
</clipPath>
</defs>
</svg>
