<svg width="43" height="35" viewBox="0 0 43 35" fill="none" xmlns="http://www.w3.org/2000/svg">
<path d="M1 5H26.4461V27.4525H12.9746" stroke="#2B2B2B" stroke-width="2" stroke-miterlimit="10" stroke-linecap="round" stroke-linejoin="round"/>
<path d="M33.9312 30.4461C35.5845 30.4461 36.9248 29.1058 36.9248 27.4525C36.9248 25.7991 35.5845 24.4588 33.9312 24.4588C32.2778 24.4588 30.9375 25.7991 30.9375 27.4525C30.9375 29.1058 32.2778 30.4461 33.9312 30.4461Z" stroke="#2B2B2B" stroke-width="2" stroke-miterlimit="10" stroke-linecap="round" stroke-linejoin="round"/>
<path d="M9.98194 30.4461C11.6353 30.4461 12.9756 29.1058 12.9756 27.4525C12.9756 25.7991 11.6353 24.4588 9.98194 24.4588C8.32859 24.4588 6.98828 25.7991 6.98828 27.4525C6.98828 29.1058 8.32859 30.4461 9.98194 30.4461Z" stroke="#2B2B2B" stroke-width="2" stroke-miterlimit="10" stroke-linecap="round" stroke-linejoin="round"/>
<path d="M26.4453 27.4524V10.9873H35.4263L41.4136 18.4715V27.4524H36.9231" stroke="#2B2B2B" stroke-width="2" stroke-miterlimit="10" stroke-linecap="round" stroke-linejoin="round"/>
<path d="M3.99414 10.9873H17.4656" stroke="#2B2B2B" stroke-width="2" stroke-miterlimit="10" stroke-linecap="round" stroke-linejoin="round"/>
<path d="M1 16.9746H14.4715" stroke="#2B2B2B" stroke-width="2" stroke-miterlimit="10" stroke-linecap="round" stroke-linejoin="round"/>
</svg>
