<svg width="43" height="35" viewBox="0 0 43 35" fill="none" xmlns="http://www.w3.org/2000/svg">
<path d="M8 10.2436L10.7465 13.2762C10.9361 13.4855 11.2053 13.6049 11.4877 13.6049H31.4027C31.6851 13.6049 31.9544 13.4855 32.1439 13.2762L34.8904 10.2436" stroke="#2B2B2B" stroke-width="2" stroke-linecap="round"/>
<path d="M11.3603 16.9662L10.0095 30.4742C9.83293 32.2403 11.2198 33.7727 12.9946 33.7727H29.8939C31.6687 33.7727 33.0556 32.2403 32.879 30.4742L31.5282 16.9662" stroke="#2B2B2B" stroke-width="2" stroke-linecap="round"/>
<circle cx="21.1663" cy="22.0082" r="5.16239" stroke="#2B2B2B" stroke-width="2"/>
<path d="M21.7266 21.448L23.9674 19.2071" stroke="#2B2B2B" stroke-width="2" stroke-linecap="round"/>
<path d="M28.2487 10.2436H14.115C13.4571 10.2436 12.8556 9.87189 12.5614 9.28346C12.3329 8.82649 12.3172 8.2921 12.5185 7.8225L13.1976 6.23788C13.369 5.83808 13.666 5.50504 14.0436 5.28924L16.2288 4.04054C16.3445 3.97444 16.4533 3.89694 16.5536 3.80921L19.1986 1.49485C19.5631 1.17584 20.0311 1 20.5156 1H23.2143C23.6987 1 24.1667 1.17584 24.5313 1.49485L27.327 3.94114L29.3057 5.59001C29.6566 5.88246 29.8969 6.28625 29.9865 6.73422L30.2099 7.85135C30.4574 9.08894 29.5108 10.2436 28.2487 10.2436Z" stroke="#2B2B2B" stroke-width="2" stroke-linecap="round"/>
</svg>
