<svg width="43" height="35" viewBox="0 0 43 35" fill="none" xmlns="http://www.w3.org/2000/svg">
<path d="M24.9144 6.11264L25.8465 3.31623C26.0623 2.6687 25.5804 2 24.8978 2H8.38743C7.70487 2 7.2229 2.6687 7.43874 3.31623L8.36876 6.10628C8.40826 6.22478 8.42521 6.34964 8.41873 6.47439L7.05464 32.7331C7.02493 33.305 7.48063 33.7849 8.0533 33.7849H24.8884C25.4559 33.7849 25.9097 33.3131 25.8876 32.746L24.8638 6.4678C24.8591 6.34733 24.8762 6.22701 24.9144 6.11264Z" stroke="#2B2B2B" stroke-width="2"/>
<path d="M7.71484 6.99988H25.2144" stroke="#2B2B2B" stroke-width="2"/>
<path fill-rule="evenodd" clip-rule="evenodd" d="M21.5213 14.7571L22.499 13.1857C22.6815 12.8924 23.0025 12.714 23.348 12.714H28.1103C28.4838 12.714 28.8262 12.9221 28.9981 13.2537L29.8129 14.825C29.8183 14.8356 29.8236 14.8462 29.8287 14.8568H33.5698C34.6744 14.8568 35.5698 15.7522 35.5698 16.8568V27.1422C35.5698 28.2468 34.6744 29.1422 33.5698 29.1422H17.5703C16.4657 29.1422 15.5703 28.2468 15.5703 27.1422V16.8568C15.5703 15.7522 16.4657 14.8568 17.5703 14.8568H21.4664C21.4826 14.8232 21.5008 14.7899 21.5213 14.7571Z" fill="#EEEEEE"/>
<path d="M22.499 13.1857L23.348 13.714L23.348 13.714L22.499 13.1857ZM21.5213 14.7571L20.6722 14.2288L20.6722 14.2288L21.5213 14.7571ZM28.9981 13.2537L29.8859 12.7934L29.8859 12.7934L28.9981 13.2537ZM29.8129 14.825L28.9251 15.2854L28.9251 15.2854L29.8129 14.825ZM29.8287 14.8568L28.9259 15.287L29.1974 15.8568H29.8287V14.8568ZM21.4664 14.8568V15.8568H22.0956L22.3679 15.2896L21.4664 14.8568ZM21.6499 12.6574L20.6722 14.2288L22.3703 15.2854L23.348 13.714L21.6499 12.6574ZM23.348 11.714C22.657 11.714 22.015 12.0707 21.6499 12.6574L23.348 13.714L23.348 13.714V11.714ZM28.1103 11.714H23.348V13.714H28.1103V11.714ZM29.8859 12.7934C29.542 12.1303 28.8573 11.714 28.1103 11.714V13.714L28.1103 13.714L29.8859 12.7934ZM30.7006 14.3647L29.8859 12.7934L28.1103 13.714L28.9251 15.2854L30.7006 14.3647ZM30.7314 14.4267C30.7215 14.4059 30.7113 14.3853 30.7006 14.3647L28.9251 15.2854C28.9254 15.286 28.9257 15.2865 28.9259 15.287L30.7314 14.4267ZM29.8287 15.8568H33.5698V13.8568H29.8287V15.8568ZM33.5698 15.8568C34.1221 15.8568 34.5698 16.3045 34.5698 16.8568H36.5698C36.5698 15.2 35.2267 13.8568 33.5698 13.8568V15.8568ZM34.5698 16.8568V27.1422H36.5698V16.8568H34.5698ZM34.5698 27.1422C34.5698 27.6945 34.1221 28.1422 33.5698 28.1422V30.1422C35.2267 30.1422 36.5698 28.799 36.5698 27.1422H34.5698ZM33.5698 28.1422H17.5703V30.1422H33.5698V28.1422ZM17.5703 28.1422C17.018 28.1422 16.5703 27.6945 16.5703 27.1422H14.5703C14.5703 28.799 15.9135 30.1422 17.5703 30.1422V28.1422ZM16.5703 27.1422V16.8568H14.5703V27.1422H16.5703ZM16.5703 16.8568C16.5703 16.3045 17.018 15.8568 17.5703 15.8568V13.8568C15.9135 13.8568 14.5703 15.2 14.5703 16.8568H16.5703ZM17.5703 15.8568H21.4664V13.8568H17.5703V15.8568ZM20.6722 14.2288C20.6327 14.2923 20.5969 14.3574 20.5649 14.424L22.3679 15.2896C22.3682 15.2889 22.369 15.2875 22.3703 15.2854L20.6722 14.2288Z" fill="#2B2B2B"/>
<circle cx="25.9069" cy="21.7476" r="3.62179" fill="#EEEEEE" stroke="#2B2B2B" stroke-width="2"/>
</svg>
