<svg width="22" height="22" viewBox="0 0 22 22" fill="none" xmlns="http://www.w3.org/2000/svg">
<path d="M8.03015 20.3773C8.5155 20.3773 8.90894 19.9642 8.90894 19.4546C8.90894 18.945 8.5155 18.5319 8.03015 18.5319C7.54481 18.5319 7.15137 18.945 7.15137 19.4546C7.15137 19.9642 7.54481 20.3773 8.03015 20.3773Z" fill="#2B2B2B" stroke="#2B2B2B" stroke-width="2" stroke-linecap="round" stroke-linejoin="round"/>
<path d="M17.6971 20.3773C18.1825 20.3773 18.5759 19.9642 18.5759 19.4546C18.5759 18.945 18.1825 18.5319 17.6971 18.5319C17.2118 18.5319 16.8184 18.945 16.8184 19.4546C16.8184 19.9642 17.2118 20.3773 17.6971 20.3773Z" fill="#2B2B2B" stroke="#2B2B2B" stroke-width="2" stroke-linecap="round" stroke-linejoin="round"/>
<path d="M1 1H4.51515L6.8703 13.3553C6.95066 13.7801 7.17077 14.1617 7.49209 14.4333C7.8134 14.7049 8.21546 14.8492 8.62788 14.8409H17.1697C17.5821 14.8492 17.9842 14.7049 18.3055 14.4333C18.6268 14.1617 18.8469 13.7801 18.9273 13.3553L20.3333 5.61364H5.39394" stroke="#2B2B2B" stroke-width="1.5" stroke-linecap="round" stroke-linejoin="round"/>
<path d="M1 1H4.51515L6.8703 13.3553C6.95066 13.7801 7.17077 14.1617 7.49209 14.4333C7.8134 14.7049 8.21546 14.8492 8.62788 14.8409H17.1697C17.5821 14.8492 17.9842 14.7049 18.3055 14.4333C18.6268 14.1617 18.8469 13.7801 18.9273 13.3553L20.3333 5.61364H5.39394" stroke="#2B2B2B" stroke-width="2" stroke-linecap="round" stroke-linejoin="round"/>
</svg>
