<svg width="193" height="27" viewBox="0 0 193 27" fill="none" xmlns="http://www.w3.org/2000/svg">
<path d="M0.704102 21.9002V5.30902H11.7754V8.59232H4.39454V11.6661H7.8038C9.6666 11.6661 11.0725 12.1551 12.0917 13.1331C13.111 14.1111 13.6382 15.2637 13.6382 16.6259C13.6382 19.9442 11.424 21.9351 7.76866 21.9351H0.704102V21.9002ZM7.69836 14.9494H4.39454V18.6169H7.69836C9.17454 18.6169 9.87748 17.8135 9.87748 16.7657C9.87748 15.7178 9.17454 14.9494 7.69836 14.9494Z" fill="#2B2B2B"/>
<path d="M7.7675 22.599H0.702941C0.316323 22.599 0 22.2846 0 21.9004V5.30923C0 4.92502 0.316323 4.61066 0.702941 4.61066H11.7743C12.1609 4.61066 12.4772 4.92502 12.4772 5.30923V8.59253C12.4772 8.97675 12.1609 9.29111 11.7743 9.29111H5.09632V10.9677H7.80264C9.84117 10.9677 11.4228 11.5265 12.5826 12.6093C13.7425 13.6921 14.34 15.0544 14.34 16.5912C14.34 20.3286 11.8094 22.599 7.7675 22.599ZM1.40588 21.2018H7.7675C11.0362 21.2018 12.9341 19.5252 12.9341 16.5912C12.9341 15.4386 12.5123 14.4606 11.5985 13.6223C10.7198 12.784 9.4897 12.3648 7.80264 12.3648H4.39338C4.00676 12.3648 3.69044 12.0505 3.69044 11.6663V8.59253C3.69044 8.20832 4.00676 7.89396 4.39338 7.89396H11.0713V6.00781H1.40588V21.2018ZM7.6972 19.3157H4.39338C4.00676 19.3157 3.69044 19.0013 3.69044 18.6171V14.9496C3.69044 14.5653 4.00676 14.251 4.39338 14.251H7.6972C9.45455 14.251 10.5793 15.229 10.5793 16.7309C10.5793 18.0233 9.70058 19.3157 7.6972 19.3157ZM5.09632 17.9185H7.6972C8.25955 17.9185 9.17338 17.7788 9.17338 16.7659C9.17338 15.8577 8.365 15.6831 7.6972 15.6831H5.09632V17.9185V17.9185Z" fill="#2B2B2B"/>
<path d="M48.2916 21.9002H44.6363V15.124H39.1533V21.9002H35.4629V5.30902H39.1533V11.9804H44.6363V5.30902H48.2916V21.9002Z" fill="#2B2B2B"/>
<path d="M48.2928 22.599H44.6375C44.2509 22.599 43.9346 22.2846 43.9346 21.9004V15.8228H39.8575V21.9004C39.8575 22.2846 39.5412 22.599 39.1546 22.599H35.4642C35.0776 22.599 34.7612 22.2846 34.7612 21.9004V5.30923C34.7612 4.92502 35.0776 4.61066 35.4642 4.61066H39.1546C39.5412 4.61066 39.8575 4.92502 39.8575 5.30923V11.282H43.9346V5.30923C43.9346 4.92502 44.2509 4.61066 44.6375 4.61066H48.2928C48.6795 4.61066 48.9958 4.92502 48.9958 5.30923V21.9353C48.9958 22.2846 48.6795 22.599 48.2928 22.599ZM45.3405 21.2018H47.5899V6.00781H45.3405V11.9806C45.3405 12.3648 45.0242 12.6792 44.6375 12.6792H39.1546C38.768 12.6792 38.4517 12.3648 38.4517 11.9806V6.00781H36.1671V21.2367H38.4517V15.1242C38.4517 14.74 38.768 14.4256 39.1546 14.4256H44.6375C45.0242 14.4256 45.3405 14.74 45.3405 15.1242V21.2018Z" fill="#2B2B2B"/>
<path d="M63.581 13.3428C64.7057 13.727 65.5492 14.8098 66.0413 16.5911L67.6581 21.9003H63.8973L62.632 17.6739C61.9994 15.6481 61.0153 15.0892 59.5391 15.0892H57.7466V21.9003H54.0562V5.27423H57.7466V11.9456H59.3985C59.8203 11.9456 60.2069 11.9107 60.5232 11.8408C61.191 11.6662 62.0345 10.8978 62.4563 9.53554L63.7919 5.37902H67.3769L65.8656 10.2341C65.4086 11.8408 64.6706 12.8887 63.6161 13.3078L63.581 13.3428Z" fill="#2B2B2B"/>
<path d="M67.6583 22.5989H63.8976C63.5813 22.5989 63.3001 22.3893 63.2298 22.1099L61.9645 17.8835C61.4022 16.137 60.6641 15.7878 59.5394 15.7878H58.4498V21.9003C58.4498 22.2845 58.1335 22.5989 57.7469 22.5989H54.0565C53.6698 22.5989 53.3535 22.2845 53.3535 21.9003V5.2742C53.3535 4.88998 53.6698 4.57562 54.0565 4.57562H57.7469C58.1335 4.57562 58.4498 4.88998 58.4498 5.2742V11.247H59.3988C59.8206 11.247 60.1369 11.2121 60.3478 11.1422C60.8047 11.0025 61.4373 10.3738 61.7888 9.291L63.1244 5.13448C63.2298 4.85505 63.4759 4.64548 63.7922 4.64548H67.3772C67.5881 4.64548 67.7989 4.75027 67.9395 4.92491C68.0801 5.09955 68.1153 5.34405 68.045 5.55363L66.5336 10.4087C66.1822 11.6662 65.6198 12.6442 64.9169 13.2729C65.7253 13.9365 66.3579 14.9844 66.7445 16.3815L68.3613 21.6907C68.4316 21.9003 68.3964 22.1448 68.2558 22.3194C68.0801 22.4941 67.8692 22.5989 67.6583 22.5989ZM64.4248 21.2017H66.7445L65.3738 16.8007C64.952 15.2638 64.2491 14.3207 63.3353 14.0064C62.9838 13.8667 62.7729 13.4825 62.8784 13.1332L62.9135 13.0633C62.9838 12.8537 63.1244 12.714 63.3001 12.6442C64.1437 12.2949 64.7411 11.4566 65.1629 10.0245L66.3931 6.07756H64.2842L63.0892 9.74508C62.5972 11.4217 61.5076 12.2949 60.6992 12.5044H60.6641C60.2775 12.6092 59.8206 12.6442 59.3637 12.6442H57.7117C57.3251 12.6442 57.0088 12.3298 57.0088 11.9456V5.97277H54.7242V21.2017H57.0088V15.1241C57.0088 14.7399 57.3251 14.4255 57.7117 14.4255H59.5042C61.4725 14.4255 62.5972 15.3337 63.265 17.4993L64.4248 21.2017Z" fill="#2B2B2B"/>
<path d="M26.9226 4.47083H23.8648H20.9125C18.5928 4.47083 16.6948 6.35698 16.6948 8.66228V13.0284V14.2509V14.8447V14.9844V21.5859C16.6948 22.1448 17.1517 22.5988 17.7141 22.5988H21.8263V19.071V17.9184H25.8331C25.8682 17.9184 25.9033 17.9184 25.9385 17.9184V19.071V22.8084H30.0858C30.6482 22.8084 31.1051 22.3543 31.1051 21.7955V14.9844C31.1051 14.9844 31.1051 14.9844 31.1051 14.9495C31.1051 14.9145 31.1051 14.8796 31.1051 14.8447V8.66228C31.1403 6.35698 29.2423 4.47083 26.9226 4.47083ZM21.8263 13.5872V11.3169V9.67521C21.8263 9.04649 22.3535 8.52256 22.9861 8.52256H24.7435C25.3761 8.52256 25.9033 9.04649 25.9033 9.67521V11.3169V13.5872C25.9528 13.5872 27.4698 13.5872 21.8263 13.5872Z" fill="#ED5432"/>
<path d="M80.3469 4.47083H77.2891H74.3368C72.0171 4.47083 70.1191 6.35698 70.1191 8.66228V13.0284V14.2509V14.8447V14.9844V21.5859C70.1191 22.1448 70.576 22.5988 71.1384 22.5988H75.2506V19.071V17.9184H79.2574C79.2925 17.9184 79.3277 17.9184 79.3628 17.9184V19.071V22.8084H83.5102C84.0725 22.8084 84.5294 22.3543 84.5294 21.7955V14.9844C84.5294 14.9844 84.5294 14.9844 84.5294 14.9495C84.5294 14.9145 84.5294 14.8796 84.5294 14.8447V8.66228C84.5646 6.35698 82.6666 4.47083 80.3469 4.47083ZM79.2574 13.5872H75.2506V11.3169V9.67521C75.2506 9.04649 75.7778 8.52256 76.4105 8.52256H78.1678C78.8005 8.52256 79.3277 9.04649 79.3277 9.67521V11.3169V13.5872C79.3628 13.5872 79.2925 13.5872 79.2574 13.5872Z" fill="#2B2B2B"/>
<path fill-rule="evenodd" clip-rule="evenodd" d="M28.0112 3.56273H19.7868C19.1893 3.56273 18.7324 3.07373 18.7324 2.51487V1.04786C18.7324 0.454074 19.2245 0 19.7868 0H28.0112C28.6087 0 29.0656 0.489003 29.0656 1.04786V2.51487C29.0656 3.10866 28.6087 3.56273 28.0112 3.56273Z" fill="#ED5432"/>
<path d="M111.873 17.4645L108.253 16.0673C108.077 15.9975 107.831 15.9975 107.655 16.1022C107.479 16.207 107.339 16.3817 107.304 16.5563C107.093 17.5693 106.284 18.163 105.16 18.163C103.613 18.163 103.051 17.0453 103.051 15.9625V11.3519C103.051 10.339 103.613 9.25621 105.16 9.25621C106.284 9.25621 107.058 9.81507 107.304 10.828C107.339 11.0376 107.479 11.1773 107.655 11.2821C107.831 11.3869 108.042 11.3869 108.217 11.317L111.838 10.0246C112.189 9.88493 112.4 9.50071 112.259 9.15142C111.275 6.11262 108.604 4.29633 105.16 4.29633C102.84 4.29633 101.012 5.02983 99.7119 6.46191C98.4466 7.85906 97.7788 9.6055 97.7788 11.7012V15.718C97.7788 20.3636 100.52 23.1229 105.16 23.1229C108.639 23.1229 111.275 21.3416 112.259 18.3377C112.4 17.9884 112.224 17.6042 111.873 17.4645Z" fill="#2B2B2B"/>
<path d="M128.674 4.43604H115.423C115.037 4.43604 114.72 4.75039 114.72 5.13461V22.3196C114.72 22.7038 115.037 23.0181 115.423 23.0181H119.254C119.641 23.0181 119.957 22.7038 119.957 22.3196V9.2562H124.21V22.2846C124.21 22.6688 124.526 22.9832 124.913 22.9832H128.674C129.06 22.9832 129.377 22.6688 129.377 22.2846V5.13461C129.377 4.71547 129.06 4.43604 128.674 4.43604Z" fill="#2B2B2B"/>
<path d="M146.142 4.43604H133.91C133.524 4.43604 133.208 4.75039 133.208 5.13461V22.3196C133.208 22.7038 133.524 23.0181 133.91 23.0181H146.106C146.493 23.0181 146.809 22.7038 146.809 22.3196V18.9315C146.809 18.5472 146.493 18.2329 146.106 18.2329H138.409V16.0324H144.841C145.228 16.0324 145.544 15.718 145.544 15.3338V12.0505C145.544 11.6663 145.228 11.3519 144.841 11.3519H138.409V9.2562H146.106C146.493 9.2562 146.809 8.94184 146.809 8.55763V5.16954C146.845 4.71547 146.528 4.43604 146.142 4.43604Z" fill="#2B2B2B"/>
<path d="M165.718 18.198H164.137V5.13461C164.137 4.75039 163.82 4.43604 163.434 4.43604H159.673C159.286 4.43604 158.97 4.75039 158.97 5.13461V18.163H154.717V5.13461C154.717 4.75039 154.401 4.43604 154.014 4.43604H150.183C149.797 4.43604 149.48 4.75039 149.48 5.13461V22.3196C149.48 22.7038 149.797 23.0181 150.183 23.0181H161.817V26.3014C161.817 26.6857 162.133 27 162.52 27H165.683C166.07 27 166.386 26.6857 166.386 26.3014V18.9664C166.421 18.5123 166.105 18.198 165.718 18.198Z" fill="#2B2B2B"/>
<path d="M173.591 5.13461C173.591 4.75039 173.275 4.43604 172.888 4.43604H169.057C168.67 4.43604 168.354 4.75039 168.354 5.13461V22.3196C168.354 22.7038 168.67 23.0181 169.057 23.0181H172.914C173.16 23.0181 173.59 22.7273 173.59 22.3175C173.59 15.438 173.591 17.0455 173.591 5.13461Z" fill="#2B2B2B"/>
<path d="M191.51 4.43604H188.347C188.1 4.43604 187.89 4.54082 187.784 4.75039L184.164 10.0246L181.809 13.6223V5.13461C181.809 4.75039 181.493 4.43604 181.106 4.43604H177.275C176.889 4.43604 176.572 4.75039 176.572 5.13461V22.3196C176.572 22.7038 176.889 23.0181 177.275 23.0181H180.684C180.93 23.0181 181.141 22.9133 181.247 22.7038L185.64 16.3817C185.64 16.3817 185.64 16.3467 185.675 16.3467L186.976 14.251V22.2846C186.976 22.6688 187.292 22.9832 187.679 22.9832H191.51C191.896 22.9832 192.213 22.6688 192.213 22.2846V5.13461C192.213 4.71547 191.896 4.43604 191.51 4.43604Z" fill="#2B2B2B"/>
<path fill-rule="evenodd" clip-rule="evenodd" d="M188.345 3.56273H180.12C179.523 3.56273 179.066 3.07373 179.066 2.51487V1.04786C179.066 0.454074 179.558 0 180.12 0H188.345C188.942 0 189.399 0.489003 189.399 1.04786V2.51487C189.399 3.10866 188.942 3.56273 188.345 3.56273Z" fill="#2B2B2B"/>
</svg>
