<svg width="22" height="22" viewBox="0 0 22 22" fill="none" xmlns="http://www.w3.org/2000/svg">
<path d="M19.4578 4.50292C18.9691 4.02645 18.3889 3.64848 17.7503 3.39061C17.1117 3.13273 16.4272 3 15.7359 3C15.0446 3 14.3601 3.13273 13.7215 3.39061C13.0829 3.64848 12.5026 4.02645 12.0139 4.50292L10.9997 5.4913L9.98554 4.50292C8.99842 3.54094 7.6596 3.0005 6.26361 3.0005C4.86761 3.0005 3.52879 3.54094 2.54168 4.50292C1.55456 5.46491 1 6.76964 1 8.1301C1 9.49055 1.55456 10.7953 2.54168 11.7573L3.55588 12.7457L10.9997 20L18.4436 12.7457L19.4578 11.7573C19.9467 11.281 20.3346 10.7156 20.5992 10.0932C20.8638 9.47084 21 8.80377 21 8.1301C21 7.45642 20.8638 6.78935 20.5992 6.16699C20.3346 5.54463 19.9467 4.97917 19.4578 4.50292V4.50292Z" stroke="#2B2B2B" stroke-width="2" stroke-linecap="round" stroke-linejoin="round"/>
</svg>
