<svg xmlns="http://www.w3.org/2000/svg">
    <symbol id="star" viewBox="0 0 15 14" fill="#EAEAEA">
        <path d="M6.82457 0.463525C6.97425 0.00286944 7.62595 0.00287007 7.77563 0.463525L9.14111 4.66606C9.20805 4.87207 9.40003 5.01155 9.61664 5.01155H14.0354C14.5198 5.01155 14.7212 5.63136 14.3293 5.91606L10.7545 8.51337C10.5792 8.64069 10.5059 8.86638 10.5728 9.07239L11.9383 13.2749C12.088 13.7356 11.5607 14.1186 11.1689 13.8339L7.59399 11.2366C7.41875 11.1093 7.18145 11.1093 7.0062 11.2366L3.43131 13.8339C3.03946 14.1186 2.51222 13.7356 2.66189 13.2749L4.02738 9.07239C4.09432 8.86638 4.02099 8.64069 3.84574 8.51337L0.270854 5.91606C-0.121003 5.63136 0.0803858 5.01155 0.564748 5.01155H4.98355C5.20017 5.01155 5.39215 4.87207 5.45908 4.66606L6.82457 0.463525Z"></path>
    </symbol>
    <symbol id="heart" viewBox="0 0 22 22">
        <path d="M19.4578 4.50292C18.9691 4.02645 18.3889 3.64848 17.7503 3.39061C17.1117 3.13273 16.4272 3 15.7359 3C15.0446 3 14.3601 3.13273 13.7215 3.39061C13.0829 3.64848 12.5026 4.02645 12.0139 4.50292L10.9997 5.4913L9.98554 4.50292C8.99842 3.54094 7.6596 3.0005 6.26361 3.0005C4.86761 3.0005 3.52879 3.54094 2.54168 4.50292C1.55456 5.46491 1 6.76964 1 8.1301C1 9.49055 1.55456 10.7953 2.54168 11.7573L3.55588 12.7457L10.9997 20L18.4436 12.7457L19.4578 11.7573C19.9467 11.281 20.3346 10.7156 20.5992 10.0932C20.8638 9.47084 21 8.80377 21 8.1301C21 7.45642 20.8638 6.78935 20.5992 6.16699C20.3346 5.54463 19.9467 4.97917 19.4578 4.50292V4.50292Z"
              stroke-width="2" stroke-linecap="round" stroke-linejoin="round"></path>
    </symbol>
</svg>